<svg width="1024" height="1024" viewBox="0 0 1024 1024" fill="none" xmlns="http://www.w3.org/2000/svg">
  <defs>
    <linearGradient id="bg" x1="96" y1="64" x2="928" y2="960" gradientUnits="userSpaceOnUse">
      <stop stop-color="#06101C" />
      <stop offset="1" stop-color="#133451" />
    </linearGradient>
    <linearGradient id="halo" x1="188" y1="160" x2="840" y2="864" gradientUnits="userSpaceOnUse">
      <stop stop-color="#0F7BFF" stop-opacity="0.32" />
      <stop offset="1" stop-color="#00BFA5" stop-opacity="0.16" />
    </linearGradient>
    <linearGradient id="bar" x1="258" y1="238" x2="682" y2="674" gradientUnits="userSpaceOnUse">
      <stop stop-color="#FFF6E2" />
      <stop offset="1" stop-color="#DCEBFF" />
    </linearGradient>
    <linearGradient id="signal" x1="640" y1="194" x2="832" y2="354" gradientUnits="userSpaceOnUse">
      <stop stop-color="#0F7BFF" />
      <stop offset="1" stop-color="#00E2C4" />
    </linearGradient>
    <filter id="softGlow" x="0" y="0" width="1024" height="1024" filterUnits="userSpaceOnUse" color-interpolation-filters="sRGB">
      <feGaussianBlur stdDeviation="18" />
    </filter>
    <clipPath id="clip">
      <rect x="72" y="72" width="880" height="880" rx="224" />
    </clipPath>
  </defs>

  <rect x="72" y="72" width="880" height="880" rx="224" fill="url(#bg)" />
  <rect x="98" y="98" width="828" height="828" rx="198" stroke="#FFFFFF" stroke-opacity="0.10" stroke-width="2" />

  <g clip-path="url(#clip)">
    <circle cx="820" cy="196" r="148" fill="#0F7BFF" fill-opacity="0.18" filter="url(#softGlow)" />
    <circle cx="180" cy="832" r="164" fill="#00BFA5" fill-opacity="0.14" filter="url(#softGlow)" />

    <path d="M146 736H878" stroke="#6FA8FF" stroke-opacity="0.18" stroke-width="10" />
    <path d="M146 800H878" stroke="#6FA8FF" stroke-opacity="0.12" stroke-width="8" />
    <path d="M146 864H878" stroke="#6FA8FF" stroke-opacity="0.08" stroke-width="6" />
    <path d="M220 674V928" stroke="#8CE9D9" stroke-opacity="0.12" stroke-width="6" />
    <path d="M346 674V928" stroke="#8CE9D9" stroke-opacity="0.08" stroke-width="6" />
    <path d="M472 674V928" stroke="#8CE9D9" stroke-opacity="0.08" stroke-width="6" />
    <path d="M598 674V928" stroke="#8CE9D9" stroke-opacity="0.08" stroke-width="6" />
    <path d="M724 674V928" stroke="#8CE9D9" stroke-opacity="0.08" stroke-width="6" />
    <path d="M850 674V928" stroke="#8CE9D9" stroke-opacity="0.12" stroke-width="6" />
  </g>

  <rect x="170" y="170" width="684" height="684" rx="180" fill="url(#halo)" />

  <g>
    <rect x="258" y="246" width="126" height="532" rx="44" fill="url(#bar)" />
    <rect x="258" y="246" width="420" height="126" rx="44" fill="url(#bar)" />
    <rect x="258" y="448" width="336" height="112" rx="38" fill="url(#bar)" />
    <rect x="258" y="652" width="420" height="126" rx="44" fill="url(#bar)" />
  </g>

  <g>
    <circle cx="752" cy="282" r="102" stroke="url(#signal)" stroke-width="22" stroke-opacity="0.92" />
    <circle cx="752" cy="282" r="46" fill="url(#signal)" fill-opacity="0.92" />
    <path d="M694 420C730 384 774 384 810 420" stroke="#00E2C4" stroke-width="22" stroke-linecap="round" />
  </g>

  <circle cx="796" cy="758" r="30" fill="#00E2C4" fill-opacity="0.96" />
</svg>
