<svg xmlns="http://www.w3.org/2000/svg" viewBox="0 0 48 48" fill="none">
  <!-- Brain outline — left half: AI neural (blue) -->
  <path d="M24 6C15 6 8 13 8 22c0 5.5 2.8 10.3 7 13.2V40a2 2 0 0 0 2 2h7V6Z" fill="#2E86DE"/>
  <!-- Neural network nodes — left -->
  <circle cx="14" cy="18" r="2" fill="white"/>
  <circle cx="19" cy="14" r="1.5" fill="white"/>
  <circle cx="12" cy="25" r="1.5" fill="white"/>
  <circle cx="18" cy="22" r="2" fill="white"/>
  <circle cx="15" cy="30" r="1.5" fill="white"/>
  <circle cx="20" cy="28" r="1.5" fill="white"/>
  <!-- Neural connections -->
  <line x1="14" y1="18" x2="19" y2="14" stroke="white" stroke-width="0.8" opacity="0.7"/>
  <line x1="14" y1="18" x2="18" y2="22" stroke="white" stroke-width="0.8" opacity="0.7"/>
  <line x1="12" y1="25" x2="18" y2="22" stroke="white" stroke-width="0.8" opacity="0.7"/>
  <line x1="18" y1="22" x2="20" y2="28" stroke="white" stroke-width="0.8" opacity="0.7"/>
  <line x1="15" y1="30" x2="20" y2="28" stroke="white" stroke-width="0.8" opacity="0.7"/>
  <line x1="12" y1="25" x2="15" y2="30" stroke="white" stroke-width="0.8" opacity="0.7"/>
  <line x1="19" y1="14" x2="18" y2="22" stroke="white" stroke-width="0.8" opacity="0.5"/>

  <!-- Brain outline — right half: Spain flag (red + gold) -->
  <path d="M24 6v36h7a2 2 0 0 0 2-2v-4.8c4.2-2.9 7-7.7 7-13.2C40 13 33 6 24 6Z" fill="#C8102E"/>
  <!-- Gold band — bandera -->
  <path d="M24 19h16c.1 1 .1 2 0 3v3H24V19Z" fill="#F1BF00"/>
  <!-- Spain silhouette (simplified) -->
  <path d="M28 21c1.5 0 3 .5 4 1.2.8.5 1.5.3 2-.2-.3 1-1.2 1.8-2.2 2-.8.2-1.8.2-2.8 0-1-.3-2-.2-3 .2v-1.5c.5-.8 1.2-1.4 2-1.7Z" fill="#C8102E" opacity="0.8"/>
</svg>
